REM DIRINDEX 1\5,1\2\6,1\2\7,1\3\8,1\3\9,1\3\10,1\3\11,1\4\12,1\4\13,1\4\14
REM DIRNAME cjc043,folder01,folder02,folder03,folder04,folder05,folder06,folder07,folder08,folder09,folder10,folder11,folder12,folder13
TITLE ""
FILE "5Q_t_159-174.mp3" MP3
  TRACK 01 AUDIO
    TITLE "5:cjc043_0711"
    INDEX 01 00:00:00
  TRACK 02 AUDIO
    TITLE "0:"
    INDEX 01 00:02:10
  TRACK 03 AUDIO
    TITLE "6:cjc043_0712"
    INDEX 01 00:02:61
  TRACK 04 AUDIO
    TITLE "0:"
    INDEX 01 00:03:61
  TRACK 05 AUDIO
    TITLE "7:cjc043_0713"
    INDEX 01 00:04:40
  TRACK 06 AUDIO
    TITLE "0:"
    INDEX 01 00:08:54
  TRACK 07 AUDIO
    TITLE "6:cjc043_0714"
    INDEX 01 00:09:28
  TRACK 08 AUDIO
    TITLE "0:"
    INDEX 01 00:10:29
  TRACK 09 AUDIO
    TITLE "7:cjc043_0715"
    INDEX 01 00:11:07
  TRACK 10 AUDIO
    TITLE "0:"
    INDEX 01 00:13:18
  TRACK 11 AUDIO
    TITLE "6:cjc043_0716"
    INDEX 01 00:13:71
  TRACK 12 AUDIO
    TITLE "0:"
    INDEX 01 00:15:13
  TRACK 13 AUDIO
    TITLE "7:cjc043_0717"
    INDEX 01 00:15:68
  TRACK 14 AUDIO
    TITLE "0:"
    INDEX 01 00:17:06
  TRACK 15 AUDIO
    TITLE "6:cjc043_0718"
    INDEX 01 00:17:63
  TRACK 16 AUDIO
    TITLE "0:"
    INDEX 01 00:18:58
  TRACK 17 AUDIO
    TITLE "7:cjc043_0719"
    INDEX 01 00:19:38
  TRACK 18 AUDIO
    TITLE "0:"
    INDEX 01 00:20:41
  TRACK 19 AUDIO
    TITLE "6:cjc043_0720"
    INDEX 01 00:21:11
  TRACK 20 AUDIO
    TITLE "0:"
    INDEX 01 00:22:13
  TRACK 21 AUDIO
    TITLE "7:cjc043_0721"
    INDEX 01 00:22:68
  TRACK 22 AUDIO
    TITLE "0:"
    INDEX 01 00:23:67
  TRACK 23 AUDIO
    TITLE "6:cjc043_0722"
    INDEX 01 00:24:39
  TRACK 24 AUDIO
    TITLE "0:"
    INDEX 01 00:25:31
  TRACK 25 AUDIO
    TITLE "7:cjc043_0723"
    INDEX 01 00:26:13
  TRACK 26 AUDIO
    TITLE "0:"
    INDEX 01 00:27:61
  TRACK 27 AUDIO
    TITLE "6:cjc043_0724"
    INDEX 01 00:28:37
  TRACK 28 AUDIO
    TITLE "0:"
    INDEX 01 00:29:46
  TRACK 29 AUDIO
    TITLE "7:cjc043_0725"
    INDEX 01 00:30:26
  TRACK 30 AUDIO
    TITLE "0:"
    INDEX 01 00:31:35
  TRACK 31 AUDIO
    TITLE "6:cjc043_0726"
    INDEX 01 00:32:13
  TRACK 32 AUDIO
    TITLE "0:"
    INDEX 01 00:33:07
  TRACK 33 AUDIO
    TITLE "7:cjc043_0727"
    INDEX 01 00:33:60
  TRACK 34 AUDIO
    TITLE "0:"
    INDEX 01 00:35:66
  TRACK 35 AUDIO
    TITLE "6:cjc043_0728"
    INDEX 01 00:36:42
  TRACK 36 AUDIO
    TITLE "0:"
    INDEX 01 00:37:52
  TRACK 37 AUDIO
    TITLE "7:cjc043_0729"
    INDEX 01 00:38:30
  TRACK 38 AUDIO
    TITLE "0:"
    INDEX 01 00:39:37
  TRACK 39 AUDIO
    TITLE "6:cjc043_0730"
    INDEX 01 00:40:23
  TRACK 40 AUDIO
    TITLE "0:"
    INDEX 01 00:41:24
  TRACK 41 AUDIO
    TITLE "7:cjc043_0731"
    INDEX 01 00:42:02
  TRACK 42 AUDIO
    TITLE "0:"
    INDEX 01 00:43:13
  TRACK 43 AUDIO
    TITLE "6:cjc043_0732"
    INDEX 01 00:43:68
  TRACK 44 AUDIO
    TITLE "0:"
    INDEX 01 00:45:22
  TRACK 45 AUDIO
    TITLE "7:cjc043_0733"
    INDEX 01 00:45:73
  TRACK 46 AUDIO
    TITLE "0:"
    INDEX 01 00:47:32
  TRACK 47 AUDIO
    TITLE "6:cjc043_0734"
    INDEX 01 00:48:16
  TRACK 48 AUDIO
    TITLE "0:"
    INDEX 01 00:49:33
  TRACK 49 AUDIO
    TITLE "7:cjc043_0735"
    INDEX 01 00:50:11
  TRACK 50 AUDIO
    TITLE "0:"
    INDEX 01 00:51:20
  TRACK 51 AUDIO
    TITLE "6:cjc043_0736"
    INDEX 01 00:51:67
  TRACK 52 AUDIO
    TITLE "0:"
    INDEX 01 00:53:04
  TRACK 53 AUDIO
    TITLE "7:cjc043_0737"
    INDEX 01 00:53:57
  TRACK 54 AUDIO
    TITLE "0:"
    INDEX 01 00:54:66
  TRACK 55 AUDIO
    TITLE "6:cjc043_0738"
    INDEX 01 00:55:42
  TRACK 56 AUDIO
    TITLE "0:"
    INDEX 01 00:56:43
  TRACK 57 AUDIO
    TITLE "7:cjc043_0739"
    INDEX 01 00:57:15
  TRACK 58 AUDIO
    TITLE "0:"
    INDEX 01 00:58:07
  TRACK 59 AUDIO
    TITLE "6:cjc043_0740"
    INDEX 01 00:58:54
  TRACK 60 AUDIO
    TITLE "0:"
    INDEX 01 00:59:61
  TRACK 61 AUDIO
    TITLE "7:cjc043_0741"
    INDEX 01 01:00:39
  TRACK 62 AUDIO
    TITLE "0:"
    INDEX 01 01:02:20
  TRACK 63 AUDIO
    TITLE "6:cjc043_0742"
    INDEX 01 01:02:73
  TRACK 64 AUDIO
    TITLE "0:"
    INDEX 01 01:04:01
  TRACK 65 AUDIO
    TITLE "7:cjc043_0743"
    INDEX 01 01:04:52
  TRACK 66 AUDIO
    TITLE "0:"
    INDEX 01 01:05:64
